<svg width="64" height="64" viewBox="0 0 64 64" fill="none" xmlns="http://www.w3.org/2000/svg">
  <rect x="1.5" y="1.5" width="61" height="61" rx="18" fill="url(#paint0_linear_101_2)"/>
  <rect x="1.5" y="1.5" width="61" height="61" rx="18" stroke="#2C6DC7" stroke-width="3"/>
  <path d="M16 22.5C16 19.4624 18.4624 17 21.5 17H24.5C27.5376 17 30 19.4624 30 22.5V24H16V22.5Z" fill="#FFFFFF"/>
  <path d="M34 22.5C34 19.4624 36.4624 17 39.5 17H42.5C45.5376 17 48 19.4624 48 22.5V24H34V22.5Z" fill="#FFFFFF"/>
  <path d="M12 27.5H52L48.5 45.5C48.0341 47.8975 45.9343 49.625 43.5 49.625H20.5C18.0657 49.625 15.9659 47.8975 15.5 45.5L12 27.5Z" fill="white"/>
  <circle cx="23.5" cy="54.5" r="4.5" fill="#1E5FB9"/>
  <circle cx="40.5" cy="54.5" r="4.5" fill="#1E5FB9"/>
  <path d="M23 35.5H41" stroke="#2A9D8F" stroke-width="4" stroke-linecap="round"/>
  <path d="M23 41.5H35" stroke="#FF7A2F" stroke-width="4" stroke-linecap="round"/>
  <defs>
    <linearGradient id="paint0_linear_101_2" x1="6" y1="6" x2="58" y2="58" gradientUnits="userSpaceOnUse">
      <stop stop-color="#D9EAFF"/>
      <stop offset="1" stop-color="#B8D6FF"/>
    </linearGradient>
  </defs>
</svg>
